<svg xmlns="http://www.w3.org/2000/svg" version="1.1" xmlns:xlink="http://www.w3.org/1999/xlink" xmlns:svgjs="http://svgjs.dev/svgjs" width="1440" height="560" preserveAspectRatio="none" viewBox="0 0 1440 560"><g mask="url(&quot;#SvgjsMask1000&quot;)" fill="none"><rect width="1440" height="560" x="0" y="0" fill="#0e2a47"></rect><g transform="translate(0, 0)" stroke-linecap="round"><path d="M260 119.23 L260 440.77" stroke-width="15" stroke="#dd1133"></path><path d="M280 208.78 L280 351.23" stroke-width="15" stroke="#3a7cc3"></path><path d="M300 168.09 L300 391.91" stroke-width="15" stroke="#dd1133"></path><path d="M320 191.46 L320 368.54" stroke-width="15" stroke="#dd1133"></path><path d="M340 106.16 L340 453.84" stroke-width="15" stroke="#dd1133"></path><path d="M360 120.1 L360 439.9" stroke-width="15" stroke="#dd1133"></path><path d="M380 228.93 L380 331.07" stroke-width="15" stroke="#3a7cc3"></path><path d="M400 131.21 L400 428.79" stroke-width="15" stroke="#dd1133"></path><path d="M420 203.05 L420 356.95" stroke-width="15" stroke="#3a7cc3"></path><path d="M440 249.16 L440 310.83" stroke-width="15" stroke="#dd1133"></path><path d="M460 181.92 L460 378.08" stroke-width="15" stroke="#3a7cc3"></path><path d="M480 222.2 L480 337.8" stroke-width="15" stroke="#3a7cc3"></path><path d="M500 196.71 L500 363.29" stroke-width="15" stroke="#dd1133"></path><path d="M520 204.83 L520 355.17" stroke-width="15" stroke="#3a7cc3"></path><path d="M540 171.51 L540 388.49" stroke-width="15" stroke="#3a7cc3"></path><path d="M560 178.28 L560 381.72" stroke-width="15" stroke="#3a7cc3"></path><path d="M580 233.6 L580 326.4" stroke-width="15" stroke="#3a7cc3"></path><path d="M600 257.77 L600 302.23" stroke-width="15" stroke="#dd1133"></path><path d="M620 190.09 L620 369.91" stroke-width="15" stroke="#3a7cc3"></path><path d="M640 126.25 L640 433.75" stroke-width="15" stroke="#dd1133"></path><path d="M660 122.59 L660 437.41" stroke-width="15" stroke="#3a7cc3"></path><path d="M680 129.28 L680 430.73" stroke-width="15" stroke="#dd1133"></path><path d="M700 226.28 L700 333.72" stroke-width="15" stroke="#dd1133"></path><path d="M720 191.38 L720 368.62" stroke-width="15" stroke="#3a7cc3"></path><path d="M740 182.67 L740 377.33" stroke-width="15" stroke="#3a7cc3"></path><path d="M760 111.68 L760 448.32" stroke-width="15" stroke="#dd1133"></path><path d="M780 184.26 L780 375.74" stroke-width="15" stroke="#3a7cc3"></path><path d="M800 199.62 L800 360.38" stroke-width="15" stroke="#dd1133"></path><path d="M820 113.74 L820 446.26" stroke-width="15" stroke="#dd1133"></path><path d="M840 241.12 L840 318.88" stroke-width="15" stroke="#dd1133"></path><path d="M860 165.39 L860 394.61" stroke-width="15" stroke="#3a7cc3"></path><path d="M880 171.18 L880 388.82" stroke-width="15" stroke="#dd1133"></path><path d="M900 241.03 L900 318.97" stroke-width="15" stroke="#dd1133"></path><path d="M920 164.5 L920 395.5" stroke-width="15" stroke="#dd1133"></path><path d="M940 182.39 L940 377.61" stroke-width="15" stroke="#3a7cc3"></path><path d="M960 208.95 L960 351.05" stroke-width="15" stroke="#dd1133"></path><path d="M980 176.92 L980 383.08" stroke-width="15" stroke="#3a7cc3"></path><path d="M1000 230.2 L1000 329.8" stroke-width="15" stroke="#dd1133"></path><path d="M1020 183.58 L1020 376.42" stroke-width="15" stroke="#dd1133"></path><path d="M1040 189.09 L1040 370.91" stroke-width="15" stroke="#3a7cc3"></path><path d="M1060 173.31 L1060 386.69" stroke-width="15" stroke="#3a7cc3"></path><path d="M1080 243.43 L1080 316.57" stroke-width="15" stroke="#3a7cc3"></path><path d="M1100 133.83 L1100 426.17" stroke-width="15" stroke="#dd1133"></path><path d="M1120 162.95 L1120 397.05" stroke-width="15" stroke="#3a7cc3"></path><path d="M1140 230.16 L1140 329.83" stroke-width="15" stroke="#dd1133"></path><path d="M1160 191.42 L1160 368.58" stroke-width="15" stroke="#3a7cc3"></path><path d="M1180 141.94 L1180 418.06" stroke-width="15" stroke="#dd1133"></path></g></g><defs><mask id="SvgjsMask1000"><rect width="1440" height="560" fill="#ffffff"></rect></mask></defs></svg>